<svg version="1.1" id="Layer_1" xmlns="http://www.w3.org/2000/svg" xmlns:xlink="http://www.w3.org/1999/xlink" x="0px" y="0px"
	 width="100%" viewBox="0 0 95 80" enable-background="new 0 0 95 80" xml:space="preserve">
<path fill="#7F6E4F" opacity="1.000000" stroke="none" 
	d="
M73.000000,81.000000 
	C62.645771,81.000000 52.291546,81.000000 41.355068,80.679619 
	C38.788563,78.671646 36.782883,77.008453 34.825630,75.290100 
	C32.530914,73.275482 30.278324,71.212860 28.360085,68.922539 
	C28.946352,65.463524 29.179995,62.253033 29.413637,59.042545 
	C29.861284,59.023315 30.308931,59.004086 30.756578,58.984859 
	C31.639662,62.217548 32.522747,65.450241 33.466347,68.904472 
	C38.400444,68.904472 43.146870,68.904472 48.252365,68.942848 
	C49.091705,68.968872 49.571980,68.956520 50.514099,68.967285 
	C55.222950,68.990410 59.469955,68.990410 64.025787,68.990410 
	C64.025787,64.752426 64.025787,61.205055 64.025787,56.981976 
	C64.753342,57.922997 65.157082,58.234516 65.275162,58.631092 
	C66.261635,61.944237 66.206558,66.647232 68.408257,68.231789 
	C70.881104,70.011490 75.377991,68.978828 78.944534,69.516708 
	C76.929825,73.575813 74.964912,77.287903 73.000000,81.000000 
z"/>
<path fill="#7E786C" opacity="1.000000" stroke="none" 
	d="
M96.000000,9.000000 
	C96.000000,15.687645 96.000000,22.375290 95.614258,29.485401 
	C90.083267,28.243826 84.938011,26.579782 79.787781,24.521091 
	C80.730209,20.269342 81.677620,16.412243 82.709068,12.212997 
	C79.606026,12.077384 76.807442,11.955075 74.078423,11.509920 
	C73.484360,9.180484 73.016304,7.078194 72.095909,5.197244 
	C71.344200,3.661025 70.052361,2.389103 69.000000,1.000000 
	C71.700012,1.000000 74.400032,1.000000 77.638535,1.338809 
	C79.389061,3.183439 80.441803,4.860683 81.843163,6.162725 
	C85.938164,9.967510 91.111938,8.869698 96.000000,9.000000 
z"/>
<path fill="#7D7056" opacity="1.000000" stroke="none" 
	d="
M96.000000,41.000000 
	C96.000000,47.687645 96.000000,54.375290 95.682266,61.420921 
	C94.186142,60.671669 93.151268,59.331562 91.802719,58.500385 
	C87.580345,55.897930 83.239662,53.487423 78.753510,50.671638 
	C77.715050,45.261440 74.176987,40.456738 77.368942,35.053307 
	C83.827187,37.068920 89.913589,39.034458 96.000000,41.000000 
z"/>
<path fill="#7F7866" opacity="1.000000" stroke="none" 
	d="
M34.000000,81.000000 
	C29.643101,81.000000 25.286201,81.000000 20.356915,80.672180 
	C13.523019,76.229576 7.261509,72.114784 1.000000,68.000000 
	C1.000000,63.643101 1.000000,59.286201 1.254236,54.679352 
	C5.973214,57.949375 10.437956,61.469349 14.981750,65.401031 
	C15.079593,71.685593 19.829876,67.775482 22.154974,69.467003 
	C24.134769,71.312958 26.062914,72.772835 27.785946,74.444168 
	C29.945293,76.538727 31.936321,78.806808 34.000000,81.000000 
z"/>
<path fill="#807A74" opacity="1.000000" stroke="none" 
	d="
M68.531464,1.000000 
	C70.052361,2.389103 71.344200,3.661025 72.095909,5.197244 
	C73.016304,7.078194 73.484360,9.180484 73.664276,11.576029 
	C69.187790,11.300859 67.512169,13.214931 67.112122,17.033089 
	C66.933121,18.741524 66.016884,20.372715 65.435211,22.038961 
	C64.938148,21.930275 64.441086,21.821589 63.944023,21.712902 
	C63.944023,18.579546 63.944023,15.446191 63.944023,11.526635 
	C58.514088,12.064311 53.830208,12.528111 48.847214,12.993578 
	C48.348728,12.995496 48.149349,12.995749 47.893387,12.819185 
	C47.836807,12.642368 47.886742,12.274443 47.905602,11.799460 
	C47.949642,7.882986 47.974823,4.441493 48.000000,1.000000 
	C54.687645,1.000000 61.375290,1.000000 68.531464,1.000000 
z"/>
<path fill="#807865" opacity="1.000000" stroke="none" 
	d="
M78.944824,51.002541 
	C83.239662,53.487423 87.580345,55.897930 91.802719,58.500385 
	C93.151268,59.331562 94.186142,60.671669 95.682266,61.889458 
	C96.000000,64.370560 96.000000,66.741112 95.677841,69.672318 
	C92.903786,73.821976 90.451897,77.410988 88.000000,81.000000 
	C85.629440,81.000000 83.258888,81.000000 80.629494,80.714622 
	C81.189308,79.917854 82.181351,79.558884 82.791786,78.864456 
	C84.216881,77.243263 86.450729,75.479294 86.483032,73.738380 
	C86.512672,72.140968 84.088257,70.498024 82.718369,68.500397 
	C81.442711,62.417946 80.193771,56.710243 78.944824,51.002541 
z"/>
<path fill="#7E694B" opacity="1.000000" stroke="none" 
	d="
M1.000000,37.000000 
	C1.000000,30.645601 1.000000,24.291204 1.401858,17.475775 
	C6.168497,18.013521 10.533278,19.012299 14.972553,20.471096 
	C14.993675,25.617540 14.940304,30.303968 14.465400,34.991947 
	C9.695911,35.662331 5.347956,36.331165 1.000000,37.000000 
z"/>
<path fill="#7E7B72" opacity="1.000000" stroke="none" 
	d="
M1.000000,3.000000 
	C0.390526,0.596104 2.096291,1.003081 3.441257,1.002436 
	C12.981730,0.997860 22.522207,1.000000 32.622208,1.395126 
	C33.039791,4.580132 32.897854,7.370011 32.755913,10.159891 
	C30.143126,9.841169 27.530073,9.524612 24.917902,9.200948 
	C24.596537,9.161128 24.279877,9.083345 23.631073,8.991514 
	C22.861347,8.912512 22.421581,8.865150 21.833141,8.574736 
	C21.043736,7.928946 20.403000,7.526211 19.354797,7.120332 
	C17.019636,6.817678 15.060388,6.648693 13.170752,6.191797 
	C9.094872,5.206287 5.054752,4.072887 1.000000,3.000000 
z"/>
<path fill="#7E776C" opacity="1.000000" stroke="none" 
	d="
M23.961035,9.023156 
	C24.279877,9.083345 24.596537,9.161128 24.917902,9.200948 
	C27.530073,9.524612 30.143126,9.841169 32.755913,10.159891 
	C32.897854,7.370011 33.039791,4.580132 33.090866,1.395126 
	C37.689255,1.000000 42.378513,1.000000 47.533882,1.000000 
	C47.974823,4.441493 47.949642,7.882986 47.453369,11.713449 
	C39.646950,12.031188 32.311626,11.959955 24.920643,11.588699 
	C24.563669,10.533504 24.262352,9.778330 23.961035,9.023156 
z"/>
<path fill="#786D55" opacity="1.000000" stroke="none" 
	d="
M14.902699,64.989326 
	C10.437956,61.469349 5.973214,57.949375 1.254236,54.214699 
	C1.000000,52.611111 1.000000,51.222221 1.443094,49.424114 
	C6.222555,48.348709 10.558921,47.682526 14.965530,47.478531 
	C14.991416,53.623592 14.947057,59.306458 14.902699,64.989326 
z"/>
<path fill="#7F7459" opacity="1.000000" stroke="none" 
	d="
M1.000000,68.476662 
	C7.261509,72.114784 13.523019,76.229576 19.892265,80.672180 
	C13.757811,81.000000 7.515622,81.000000 1.000000,81.000000 
	C1.000000,76.988503 1.000000,72.970909 1.000000,68.476662 
z"/>
<path fill="#7E796B" opacity="1.000000" stroke="none" 
	d="
M14.895287,47.016342 
	C10.558921,47.682526 6.222555,48.348709 1.443094,49.007446 
	C1.000000,46.629444 1.000000,44.258884 1.393089,41.422554 
	C6.158980,39.637592 10.531783,38.318405 14.979900,37.448326 
	C15.001905,40.937073 14.948596,43.976704 14.895287,47.016342 
z"/>
<path fill="#7C6E5A" opacity="1.000000" stroke="none" 
	d="
M96.000000,8.505266 
	C91.111938,8.869698 85.938164,9.967510 81.843163,6.162725 
	C80.441803,4.860683 79.389061,3.183439 78.088516,1.338809 
	C83.884834,1.000000 89.769661,1.000000 96.000000,1.000000 
	C96.000000,3.325504 96.000000,5.668018 96.000000,8.505266 
z"/>
<path fill="#807969" opacity="1.000000" stroke="none" 
	d="
M96.000000,40.562500 
	C89.913589,39.034458 83.827187,37.068920 77.342209,34.712601 
	C77.406090,32.826607 77.868530,31.331390 78.764771,29.890114 
	C84.799049,31.296036 90.399529,32.648018 96.000000,34.000000 
	C96.000000,36.041668 96.000000,38.083332 96.000000,40.562500 
z"/>
<path fill="#7C7156" opacity="1.000000" stroke="none" 
	d="
M82.745079,68.875137 
	C84.088257,70.498024 86.512672,72.140968 86.483032,73.738380 
	C86.450729,75.479294 84.216881,77.243263 82.791786,78.864456 
	C82.181351,79.558884 81.189308,79.917854 80.185333,80.714622 
	C77.958336,81.000000 75.916664,81.000000 73.437500,81.000000 
	C74.964912,77.287903 76.929825,73.575813 79.315186,69.448746 
	C80.738770,68.980904 81.741928,68.928017 82.745079,68.875137 
z"/>
<path fill="#676053" opacity="1.000000" stroke="none" 
	d="
M23.631073,8.991514 
	C24.262352,9.778330 24.563669,10.533504 24.471153,11.638758 
	C21.064207,12.034553 18.051098,12.080268 14.813745,11.841074 
	C10.059669,10.370777 5.529835,9.185389 1.000000,8.000000 
	C1.000000,6.611111 1.000000,5.222222 1.000000,3.416667 
	C5.054752,4.072887 9.094872,5.206287 13.170752,6.191797 
	C15.060388,6.648693 17.019636,6.817678 19.524048,7.357599 
	C20.727783,8.004605 21.354799,8.411198 21.981815,8.817790 
	C22.421581,8.865150 22.861347,8.912512 23.631073,8.991514 
z"/>
<path fill="#7D7565" opacity="1.000000" stroke="none" 
	d="
M1.000000,8.428462 
	C5.529835,9.185389 10.059669,10.370777 14.827236,12.248886 
	C15.004261,14.297166 14.943555,15.652727 14.484864,16.999481 
	C9.724586,15.993785 5.362293,14.996893 1.000000,14.000000 
	C1.000000,12.285642 1.000000,10.571282 1.000000,8.428462 
z"/>
<path fill="#706A5D" opacity="1.000000" stroke="none" 
	d="
M96.000000,33.600006 
	C90.399529,32.648018 84.799049,31.296036 78.796387,29.517796 
	C78.860382,27.699608 79.326569,26.307674 79.792755,24.915741 
	C84.938011,26.579782 90.083267,28.243826 95.614258,29.953934 
	C96.000000,31.066669 96.000000,32.133339 96.000000,33.600006 
z"/>
<path fill="#7D7256" opacity="1.000000" stroke="none" 
	d="
M34.437500,81.000000 
	C31.936321,78.806808 29.945293,76.538727 27.785946,74.444168 
	C26.062914,72.772835 24.134769,71.312958 22.580097,69.405693 
	C24.577501,69.091805 26.292480,69.131439 28.007458,69.171066 
	C30.278324,71.212860 32.530914,73.275482 34.825630,75.290100 
	C36.782883,77.008453 38.788563,78.671646 40.886410,80.679619 
	C38.958332,81.000000 36.916668,81.000000 34.437500,81.000000 
z"/>
<path fill="#7F7A6D" opacity="1.000000" stroke="none" 
	d="
M88.494736,81.000000 
	C90.451897,77.410988 92.903786,73.821976 95.677841,70.116478 
	C96.000000,73.569656 96.000000,77.139313 96.000000,81.000000 
	C93.667175,81.000000 91.328316,81.000000 88.494736,81.000000 
z"/>
<path fill="#7F7058" opacity="1.000000" stroke="none" 
	d="
M14.904586,36.999218 
	C10.531783,38.318405 6.158980,39.637592 1.393089,40.978394 
	C1.000000,39.933331 1.000000,38.866661 1.000000,37.399994 
	C5.347956,36.331165 9.695911,35.662331 14.540600,35.323353 
	C14.993082,36.101875 14.948833,36.550549 14.904586,36.999218 
z"/>
<path fill="#7D6F57" opacity="1.000000" stroke="none" 
	d="
M1.000000,14.375000 
	C5.362293,14.996893 9.724586,15.993785 14.562847,17.370785 
	C14.991897,18.504290 14.944978,19.257683 14.898059,20.011078 
	C10.533278,19.012299 6.168497,18.013521 1.401858,17.007372 
	C1.000000,16.250000 1.000000,15.500000 1.000000,14.375000 
z"/>
<path fill="#EEEFF7" opacity="1.000000" stroke="none" 
	d="
M79.787781,24.521091 
	C79.326569,26.307674 78.860382,27.699608 78.362579,29.463858 
	C77.868530,31.331390 77.406090,32.826607 76.970383,34.662525 
	C74.176987,40.456738 77.715050,45.261440 78.753510,50.671638 
	C80.193771,56.710243 81.442711,62.417946 82.718369,68.500389 
	C81.741928,68.928017 80.738770,68.980904 79.364967,69.101738 
	C75.377991,68.978828 70.881104,70.011490 68.408257,68.231789 
	C66.206558,66.647232 66.261635,61.944237 65.275162,58.631092 
	C65.157082,58.234516 64.753342,57.922997 64.025787,56.981976 
	C64.025787,61.205055 64.025787,64.752426 64.025787,68.990410 
	C59.469955,68.990410 55.222950,68.990410 50.420704,68.716400 
	C49.690498,67.946358 49.515537,67.450325 49.400997,66.491302 
	C49.394718,55.696659 49.328018,45.365009 49.402458,34.648476 
	C49.430775,28.509666 49.317944,22.755743 49.290493,16.605301 
	C49.299358,15.136492 49.222843,14.064202 49.146324,12.991913 
	C53.830208,12.528111 58.514088,12.064311 63.944023,11.526635 
	C63.944023,15.446191 63.944023,18.579546 63.944023,21.712902 
	C64.441086,21.821589 64.938148,21.930275 65.435211,22.038961 
	C66.016884,20.372715 66.933121,18.741524 67.112122,17.033089 
	C67.512169,13.214931 69.187790,11.300859 73.594704,11.898876 
	C76.807442,11.955075 79.606026,12.077384 82.709068,12.212997 
	C81.677620,16.412243 80.730209,20.269342 79.787781,24.521091 
z"/>
<path fill="#EEEFF7" opacity="1.000000" stroke="none" 
	d="
M14.972553,20.471096 
	C14.944978,19.257683 14.991897,18.504290 14.960832,17.379591 
	C14.943555,15.652727 15.004261,14.297166 15.051477,12.533794 
	C18.051098,12.080268 21.064207,12.034553 24.526810,11.938780 
	C32.311626,11.959955 39.646950,12.031188 47.434509,12.188433 
	C47.886742,12.274443 47.836807,12.642368 47.712536,13.118636 
	C47.413219,14.724445 47.238178,15.853986 46.979240,17.345646 
	C45.164383,23.742931 43.433414,29.778095 41.449158,36.113770 
	C41.149338,37.721752 40.799248,39.105305 41.104805,40.324539 
	C43.339363,49.240883 45.705463,58.124264 47.985107,67.330849 
	C47.924541,68.063927 47.908920,68.484200 47.893299,68.904472 
	C43.146870,68.904472 38.400444,68.904472 33.466347,68.904472 
	C32.522747,65.450241 31.639662,62.217548 30.756578,58.984859 
	C30.308931,59.004086 29.861284,59.023315 29.413637,59.042545 
	C29.179995,62.253033 28.946352,65.463524 28.360085,68.922539 
	C26.292480,69.131439 24.577501,69.091805 22.437401,69.113480 
	C19.829876,67.775482 15.079593,71.685593 14.981750,65.401031 
	C14.947057,59.306458 14.991416,53.623592 14.965530,47.478531 
	C14.948596,43.976704 15.001905,40.937073 14.979900,37.448326 
	C14.948833,36.550549 14.993082,36.101875 14.962132,35.321800 
	C14.940304,30.303968 14.993675,25.617540 14.972553,20.471096 
z"/>
<path fill="#989387" opacity="1.000000" stroke="none" 
	d="
M48.252365,68.942848 
	C47.908920,68.484200 47.924541,68.063927 48.312603,67.312881 
	C48.903557,66.972839 49.122063,66.963562 49.340572,66.954285 
	C49.515537,67.450325 49.690498,67.946358 49.958858,68.693283 
	C49.571980,68.956520 49.091705,68.968872 48.252365,68.942848 
z"/>
<path fill="#7E776C" opacity="1.000000" stroke="none" 
	d="
M47.063133,16.983526 
	C47.238178,15.853986 47.413219,14.724445 47.769119,13.295453 
	C48.149349,12.995749 48.348728,12.995496 48.847218,12.993578 
	C49.222843,14.064202 49.299358,15.136492 48.934059,16.573524 
	C48.015873,16.953354 47.539501,16.968439 47.063133,16.983526 
z"/>
<path fill="#7E776C" opacity="1.000000" stroke="none" 
	d="
M21.833141,8.574736 
	C21.354799,8.411198 20.727783,8.004605 19.931517,7.360744 
	C20.403000,7.526211 21.043736,7.928946 21.833141,8.574736 
z"/>
<path fill="#7F7255" opacity="1.000000" stroke="none" 
	d="
M49.400997,66.491302 
	C49.122063,66.963562 48.903557,66.972839 48.357552,67.000076 
	C45.705463,58.124264 43.339363,49.240883 41.104805,40.324539 
	C40.799248,39.105305 41.149338,37.721752 41.871918,36.075077 
	C44.785751,35.501701 47.023533,35.267529 49.261314,35.033356 
	C49.328018,45.365009 49.394718,55.696659 49.400997,66.491302 
z"/>
<path fill="#989387" opacity="1.000000" stroke="none" 
	d="
M49.402458,34.648476 
	C47.023533,35.267529 44.785751,35.501701 42.125214,35.774567 
	C43.433414,29.778095 45.164383,23.742931 46.979240,17.345646 
	C47.539501,16.968439 48.015873,16.953354 48.848679,16.970043 
	C49.317944,22.755743 49.430775,28.509666 49.402458,34.648476 
z"/>
</svg>